<?xml version="1.0" encoding="UTF-8"?>
<svg id="stars-6" xmlns="http://www.w3.org/2000/svg" version="1.1" viewBox="0 0 3165.6 2185.1">
  <!-- Generator: Adobe Illustrator 29.2.1, SVG Export Plug-In . SVG Version: 2.1.0 Build 116)  -->
  <defs>
    <style>
      .st0 {
        fill: #5488a3;
      }
    </style>
  </defs>
  <circle class="st0" cx="456.2" cy="503.2" r="5.6"/>
  <circle class="st0" cx="620.5" cy="158.7" r="5.6"/>
  <circle class="st0" cx="643.8" cy="638.6" r="3.3"/>
  <circle class="st0" cx="441.7" cy="781.4" r="3.3"/>
  <circle class="st0" cx="444.6" cy="617.5" r="2.2"/>
  <circle class="st0" cx="606.2" cy="771.1" r="2.2"/>
  <circle class="st0" cx="718.3" cy="786.9" r="2.2"/>
  <circle class="st0" cx="708.6" cy="321.1" r="2.2"/>
  <circle class="st0" cx="600" cy="952.6" r="2.2"/>
  <circle class="st0" cx="498.9" cy="318.1" r="2.2"/>
  <circle class="st0" cx="658.6" cy="578.1" r="2.2"/>
  <circle class="st0" cx="472" cy="172.8" r="2.2"/>
  <circle class="st0" cx="214.6" cy="900.6" r="2.2"/>
  <circle class="st0" cx="767.4" cy="784.7" r="2.2"/>
  <circle class="st0" cx="244.1" cy="266.3" r="3.3"/>
  <circle class="st0" cx="588.8" cy="333" r="3.3"/>
  <circle class="st0" cx="261.1" cy="70.3" r="3.3"/>
  <circle class="st0" cx="238.4" cy="657.6" r="5.6"/>
  <circle class="st0" cx="32.1" cy="614.4" r="3.3"/>
  <circle class="st0" cx="106.6" cy="762.7" r="2.2"/>
  <circle class="st0" cx="96.9" cy="296.9" r="2.2"/>
  <circle class="st0" cx="21.5" cy="662.3" r="2.2"/>
  <circle class="st0" cx="503.6" cy="534.2" r="2.5"/>
  <circle class="st0" cx="1380.8" cy="580.3" r="5.6"/>
  <circle class="st0" cx="1152.1" cy="874.8" r="5.6"/>
  <circle class="st0" cx="1075.8" cy="488.3" r="3.3"/>
  <circle class="st0" cx="1287.5" cy="733" r="2.2"/>
  <circle class="st0" cx="1087.9" cy="634.8" r="2.2"/>
  <circle class="st0" cx="1401.4" cy="897.6" r="2.2"/>
  <circle class="st0" cx="1396.8" cy="480.1" r="2.2"/>
  <circle class="st0" cx="1332.5" cy="37" r="2.2"/>
  <circle class="st0" cx="1242.6" cy="438.1" r="2.2"/>
  <circle class="st0" cx="1447.6" cy="118.8" r="2.2"/>
  <circle class="st0" cx="1399.2" cy="562.9" r="2.2"/>
  <circle class="st0" cx="929.9" cy="749.8" r="2.2"/>
  <circle class="st0" cx="967.7" cy="880.4" r="2.2"/>
  <circle class="st0" cx="1282.2" cy="1084.7" r="2.2"/>
  <circle class="st0" cx="1013.2" cy="344.4" r="2.2"/>
  <circle class="st0" cx="1401.4" cy="269.7" r="3.3"/>
  <circle class="st0" cx="1057.5" cy="206.8" r="3.3"/>
  <circle class="st0" cx="1329.9" cy="717.3" r="2.5"/>
  <circle class="st0" cx="1082.4" cy="618.5" r="3.3"/>
  <circle class="st0" cx="846.1" cy="408.9" r="3.3"/>
  <circle class="st0" cx="831.5" cy="209.5" r="2.2"/>
  <circle class="st0" cx="924.4" cy="499.6" r="2.2"/>
  <circle class="st0" cx="2262.2" cy="1063.3" r="2.5"/>
  <circle class="st0" cx="1972.2" cy="417.6" r="5.6"/>
  <circle class="st0" cx="1851.8" cy="420.7" r="5.6"/>
  <circle class="st0" cx="2095.8" cy="604.1" r="3.3"/>
  <circle class="st0" cx="2051.6" cy="915.7" r="2.2"/>
  <circle class="st0" cx="1760.1" cy="710.7" r="2.2"/>
  <circle class="st0" cx="2066.3" cy="874" r="2.2"/>
  <circle class="st0" cx="2201" cy="521.6" r="2.2"/>
  <circle class="st0" cx="2157.1" cy="467.2" r="2.2"/>
  <circle class="st0" cx="2000.1" cy="326.4" r="2.2"/>
  <circle class="st0" cx="2303" cy="268" r="2.2"/>
  <circle class="st0" cx="1997.8" cy="52.7" r="2.2"/>
  <circle class="st0" cx="2159.3" cy="660.6" r="2.2"/>
  <circle class="st0" cx="1856.6" cy="940.4" r="2.2"/>
  <circle class="st0" cx="1953.7" cy="168.2" r="3.3"/>
  <circle class="st0" cx="1800.2" cy="218.8" r="2.2"/>
  <circle class="st0" cx="1924" cy="151.8" r="5.6"/>
  <circle class="st0" cx="1702.4" cy="912.4" r="3.3"/>
  <circle class="st0" cx="1720.7" cy="689.2" r="5.6"/>
  <circle class="st0" cx="1697.9" cy="896.2" r="2.2"/>
  <circle class="st0" cx="1657.4" cy="521.6" r="2.2"/>
  <circle class="st0" cx="1691.3" cy="243.8" r="2.2"/>
  <circle class="st0" cx="1756.7" cy="782.5" r="2.2"/>
  <circle class="st0" cx="2981.8" cy="1059.5" r="2.5"/>
  <circle class="st0" cx="2981.8" cy="421.5" r="5.6"/>
  <circle class="st0" cx="2894.3" cy="850.3" r="3.3"/>
  <circle class="st0" cx="2717.2" cy="238.6" r="3.3"/>
  <circle class="st0" cx="3096" cy="935.4" r="2.2"/>
  <circle class="st0" cx="2908.7" cy="1007.6" r="2.2"/>
  <circle class="st0" cx="2710.7" cy="1039.5" r="2.2"/>
  <circle class="st0" cx="3105.7" cy="528.5" r="2.2"/>
  <circle class="st0" cx="2645.4" cy="568.7" r="2.2"/>
  <circle class="st0" cx="2758.5" cy="528.7" r="2.2"/>
  <circle class="st0" cx="3096" cy="63.5" r="2.2"/>
  <circle class="st0" cx="2838" cy="119.9" r="2.2"/>
  <circle class="st0" cx="2721.1" cy="584.9" r="2.2"/>
  <circle class="st0" cx="2432.5" cy="957.7" r="2.2"/>
  <circle class="st0" cx="3107" cy="118.9" r="3.3"/>
  <circle class="st0" cx="2674.7" cy="365.2" r="3.3"/>
  <circle class="st0" cx="2669.1" cy="136.4" r="3.3"/>
  <circle class="st0" cx="2559.1" cy="1080.9" r="3.3"/>
  <circle class="st0" cx="2526.4" cy="227.8" r="5.6"/>
  <circle class="st0" cx="2430.3" cy="956.7" r="2.2"/>
  <circle class="st0" cx="2507.1" cy="594" r="2.2"/>
  <circle class="st0" cx="2484.3" cy="39.3" r="2.2"/>
  <circle class="st0" cx="2495.4" cy="94.7" r="3.3"/>
  <circle class="st0" cx="754.6" cy="2134.9" r="5.6"/>
  <circle class="st0" cx="557.9" cy="1359.3" r="5.6"/>
  <circle class="st0" cx="352.1" cy="1827.4" r="3.3"/>
  <circle class="st0" cx="596.4" cy="1373" r="3.3"/>
  <circle class="st0" cx="680.1" cy="2034.9" r="2.2"/>
  <circle class="st0" cx="612.1" cy="1984.8" r="2.2"/>
  <circle class="st0" cx="396.8" cy="2037.1" r="2.2"/>
  <circle class="st0" cx="719.5" cy="1549.8" r="2.2"/>
  <circle class="st0" cx="345.5" cy="1424" r="2.2"/>
  <circle class="st0" cx="532.5" cy="1292.6" r="2.2"/>
  <circle class="st0" cx="752.4" cy="1399.1" r="2.2"/>
  <circle class="st0" cx="445" cy="1261.6" r="2.2"/>
  <circle class="st0" cx="775.3" cy="1599.8" r="2.2"/>
  <circle class="st0" cx="375" cy="1873.5" r="2.2"/>
  <circle class="st0" cx="569.1" cy="1124" r="3.3"/>
  <circle class="st0" cx="388.9" cy="1673.2" r="3.3"/>
  <circle class="st0" cx="361.5" cy="1338.2" r="2.2"/>
  <circle class="st0" cx="222.7" cy="2113.5" r="3.3"/>
  <circle class="st0" cx="34.4" cy="1225.5" r="5.6" transform="translate(-12.5 .4) rotate(-.6)"/>
  <circle class="st0" cx="34.4" cy="1909" r="2.2"/>
  <circle class="st0" cx="107.9" cy="1525.6" r="2.2"/>
  <circle class="st0" cx="132.2" cy="1354" r="2.2"/>
  <circle class="st0" cx="28.8" cy="1321.5" r="3.3"/>
  <circle class="st0" cx="1268.1" cy="1609.3" r="5.6"/>
  <circle class="st0" cx="1432.5" cy="1264.8" r="5.6"/>
  <circle class="st0" cx="1455.8" cy="1744.7" r="3.3"/>
  <circle class="st0" cx="1253.7" cy="1887.5" r="3.3"/>
  <circle class="st0" cx="1256.5" cy="1723.6" r="2.2"/>
  <circle class="st0" cx="1418.2" cy="1877.2" r="2.2"/>
  <circle class="st0" cx="1530.3" cy="1893" r="2.2"/>
  <circle class="st0" cx="1520.5" cy="1427.2" r="2.2"/>
  <circle class="st0" cx="1411.9" cy="2150.7" r="2.2"/>
  <circle class="st0" cx="1459.1" cy="1298.3" r="2.2"/>
  <circle class="st0" cx="1379.5" cy="1242.7" r="2.2"/>
  <circle class="st0" cx="1281.8" cy="1244.9" r="2.2"/>
  <circle class="st0" cx="854.8" cy="1951.3" r="2.2"/>
  <circle class="st0" cx="1015.1" cy="1919.3" r="2.2"/>
  <circle class="st0" cx="1268.1" cy="1430.5" r="3.3"/>
  <circle class="st0" cx="1568.2" cy="1507.2" r="3.3"/>
  <circle class="st0" cx="1143.4" cy="1136.8" r="2.2"/>
  <circle class="st0" cx="1177.6" cy="2179.5" r="5.6"/>
  <circle class="st0" cx="884.7" cy="1918.5" r="3.3"/>
  <circle class="st0" cx="861.4" cy="1826.3" r="2.2"/>
  <circle class="st0" cx="836.5" cy="1410.5" r="2.2"/>
  <circle class="st0" cx="858.9" cy="1660" r="2.2"/>
  <circle class="st0" cx="923.2" cy="1720.5" r="2.5"/>
  <circle class="st0" cx="2340.9" cy="1768.4" r="5.6"/>
  <circle class="st0" cx="1986.2" cy="1167.7" r="5.6"/>
  <circle class="st0" cx="2313.8" cy="1850.3" r="3.3"/>
  <circle class="st0" cx="2048.6" cy="1876.9" r="2.2"/>
  <circle class="st0" cx="1820.8" cy="1678.3" r="2.2"/>
  <circle class="st0" cx="1834.9" cy="2012.8" r="2.2"/>
  <circle class="st0" cx="2280.9" cy="1495" r="3.3"/>
  <circle class="st0" cx="2181.7" cy="1421.7" r="2.2"/>
  <circle class="st0" cx="2065.7" cy="1500.1" r="2.2"/>
  <circle class="st0" cx="2270.7" cy="1180.8" r="2.2"/>
  <circle class="st0" cx="2222.4" cy="1624.9" r="2.2"/>
  <circle class="st0" cx="1753" cy="1811.7" r="2.2"/>
  <circle class="st0" cx="1790.8" cy="1942.4" r="2.2"/>
  <circle class="st0" cx="2105.3" cy="2146.7" r="2.2"/>
  <circle class="st0" cx="1836.4" cy="1406.4" r="2.2"/>
  <circle class="st0" cx="2224.5" cy="1331.7" r="3.3"/>
  <circle class="st0" cx="1880.7" cy="1268.8" r="3.3"/>
  <circle class="st0" cx="2153.1" cy="1779.3" r="2.5"/>
  <circle class="st0" cx="1905.6" cy="1680.5" r="3.3"/>
  <circle class="st0" cx="1669.3" cy="1470.9" r="3.3"/>
  <circle class="st0" cx="1654.7" cy="1271.5" r="2.2"/>
  <circle class="st0" cx="1747.6" cy="1561.6" r="2.2"/>
  <circle class="st0" cx="3057.1" cy="2133.4" r="2.5"/>
  <circle class="st0" cx="2767.2" cy="1487.7" r="5.6"/>
  <circle class="st0" cx="2646.8" cy="1490.7" r="5.6"/>
  <circle class="st0" cx="2890.8" cy="1674.2" r="3.3"/>
  <circle class="st0" cx="2846.6" cy="1985.8" r="2.2"/>
  <circle class="st0" cx="2555.1" cy="1780.8" r="2.2"/>
  <circle class="st0" cx="2861.2" cy="1944.1" r="2.2"/>
  <circle class="st0" cx="2995.9" cy="1591.7" r="2.2"/>
  <circle class="st0" cx="2952" cy="1537.3" r="2.2"/>
  <circle class="st0" cx="2767.2" cy="1556.5" r="2.2"/>
  <circle class="st0" cx="2915.3" cy="1213.4" r="2.2"/>
  <circle class="st0" cx="2973.8" cy="1635.5" r="2.2"/>
  <circle class="st0" cx="2818.3" cy="1812.3" r="2.2"/>
  <circle class="st0" cx="2636.6" cy="2052.5" r="2.2"/>
  <circle class="st0" cx="3155.5" cy="2092.3" r="2.2"/>
  <circle class="st0" cx="2604.9" cy="1365.9" r="2.2"/>
  <circle class="st0" cx="2647" cy="1111.6" r="5.6"/>
  <circle class="st0" cx="2490.8" cy="1876.8" r="3.3"/>
  <circle class="st0" cx="3118.9" cy="1730.7" r="2.5"/>
  <circle class="st0" cx="2488.5" cy="1841.2" r="3.3"/>
  <circle class="st0" cx="2418.3" cy="1570.8" r="3.3"/>
  <circle class="st0" cx="2445.4" cy="1171.7" r="2.2"/>
  <circle class="st0" cx="2589.8" cy="1617.9" r="2.2"/>
</svg>