<?xml version="1.0" encoding="UTF-8"?>
<svg id="stars-3" xmlns="http://www.w3.org/2000/svg" version="1.1" viewBox="0 0 3165.6 2185.1">
  <!-- Generator: Adobe Illustrator 29.2.1, SVG Export Plug-In . SVG Version: 2.1.0 Build 116)  -->
  <defs>
    <style>
      .st0 {
        fill: #5488a3;
      }
    </style>
  </defs>
  <circle class="st0" cx="594.4" cy="1022.5" r="2.5"/>
  <circle class="st0" cx="594.4" cy="384.4" r="5.6"/>
  <circle class="st0" cx="506.9" cy="813.2" r="3.3"/>
  <circle class="st0" cx="329.8" cy="201.6" r="3.3"/>
  <circle class="st0" cx="708.6" cy="898.4" r="2.2"/>
  <circle class="st0" cx="521.2" cy="970.5" r="2.2"/>
  <circle class="st0" cx="323.2" cy="1002.4" r="2.2"/>
  <circle class="st0" cx="718.3" cy="491.5" r="2.2"/>
  <circle class="st0" cx="258" cy="531.6" r="2.2"/>
  <circle class="st0" cx="387.9" cy="203.8" r="2.2"/>
  <circle class="st0" cx="729.1" cy="138.8" r="2.2"/>
  <circle class="st0" cx="633.2" cy="686.5" r="2.2"/>
  <circle class="st0" cx="365.7" cy="644.2" r="2.2"/>
  <circle class="st0" cx="303.8" cy="811" r="2.2"/>
  <circle class="st0" cx="583.3" cy="63.3" r="3.3"/>
  <circle class="st0" cx="326.5" cy="435.9" r="3.3"/>
  <circle class="st0" cx="193.8" cy="66.5" r="2.2"/>
  <circle class="st0" cx="503.6" cy="918.4" r="3.3"/>
  <circle class="st0" cx="130.2" cy="39.1" r="5.6"/>
  <circle class="st0" cx="141.3" cy="896.5" r="2.2"/>
  <circle class="st0" cx="106.6" cy="467.3" r="2.2"/>
  <circle class="st0" cx="117.4" cy="114.6" r="2.2"/>
  <circle class="st0" cx="144.5" cy="376.9" r="3.3"/>
  <circle class="st0" cx="1168.6" cy="667.1" r="5.6"/>
  <circle class="st0" cx="1528.3" cy="78.3" r="5.6"/>
  <circle class="st0" cx="1470.8" cy="851.7" r="3.3"/>
  <circle class="st0" cx="1274.7" cy="58.3" r="3.3"/>
  <circle class="st0" cx="1539.3" cy="935.7" r="2.2"/>
  <circle class="st0" cx="1379.2" cy="742.4" r="2.2"/>
  <circle class="st0" cx="1447.6" cy="759.5" r="2.2"/>
  <circle class="st0" cx="1440.9" cy="375.6" r="2.2"/>
  <circle class="st0" cx="1106.4" cy="348" r="2.2"/>
  <circle class="st0" cx="1293.3" cy="216.6" r="2.2"/>
  <circle class="st0" cx="1513.3" cy="323.1" r="2.2"/>
  <circle class="st0" cx="1205.8" cy="185.6" r="2.2"/>
  <circle class="st0" cx="1536.1" cy="523.8" r="2.2"/>
  <circle class="st0" cx="1135.8" cy="797.5" r="2.2"/>
  <circle class="st0" cx="1329.9" cy="48" r="3.3"/>
  <circle class="st0" cx="1149.8" cy="597.2" r="3.3"/>
  <circle class="st0" cx="1122.3" cy="262.2" r="2.2"/>
  <circle class="st0" cx="983.5" cy="1037.5" r="3.3"/>
  <circle class="st0" cx="795.3" cy="149.5" r="5.6"/>
  <circle class="st0" cx="795.3" cy="833" r="2.2"/>
  <circle class="st0" cx="868.7" cy="449.6" r="2.2"/>
  <circle class="st0" cx="893" cy="278.1" r="2.2"/>
  <circle class="st0" cx="789.7" cy="245.5" r="3.3"/>
  <circle class="st0" cx="2057.2" cy="525.2" r="5.6"/>
  <circle class="st0" cx="2221.5" cy="180.7" r="5.6"/>
  <circle class="st0" cx="2244.8" cy="660.6" r="3.3"/>
  <circle class="st0" cx="2042.7" cy="803.4" r="3.3"/>
  <circle class="st0" cx="2045.6" cy="639.5" r="2.2"/>
  <circle class="st0" cx="2207.2" cy="793.1" r="2.2"/>
  <circle class="st0" cx="2319.3" cy="808.9" r="2.2"/>
  <circle class="st0" cx="2309.6" cy="343.1" r="2.2"/>
  <circle class="st0" cx="2201" cy="974.6" r="2.2"/>
  <circle class="st0" cx="2099.9" cy="340.1" r="2.2"/>
  <circle class="st0" cx="2259.6" cy="600.1" r="2.2"/>
  <circle class="st0" cx="2073" cy="194.8" r="2.2"/>
  <circle class="st0" cx="1815.6" cy="922.6" r="2.2"/>
  <circle class="st0" cx="2368.4" cy="806.7" r="2.2"/>
  <circle class="st0" cx="1845.1" cy="288.3" r="3.3"/>
  <circle class="st0" cx="2189.8" cy="355" r="3.3"/>
  <circle class="st0" cx="1862.1" cy="92.3" r="3.3"/>
  <circle class="st0" cx="1839.4" cy="679.6" r="5.6"/>
  <circle class="st0" cx="1633.1" cy="636.4" r="3.3"/>
  <circle class="st0" cx="1707.6" cy="784.7" r="2.2"/>
  <circle class="st0" cx="1697.9" cy="318.9" r="2.2"/>
  <circle class="st0" cx="1622.5" cy="684.3" r="2.2"/>
  <circle class="st0" cx="2104.6" cy="556.2" r="2.5"/>
  <circle class="st0" cx="2981.8" cy="602.3" r="5.6"/>
  <circle class="st0" cx="2753.1" cy="896.8" r="5.6"/>
  <circle class="st0" cx="2676.8" cy="510.3" r="3.3"/>
  <circle class="st0" cx="2888.5" cy="755" r="2.2"/>
  <circle class="st0" cx="2688.9" cy="656.8" r="2.2"/>
  <circle class="st0" cx="3002.4" cy="919.6" r="2.2"/>
  <circle class="st0" cx="2997.8" cy="502.1" r="2.2"/>
  <circle class="st0" cx="2933.5" cy="59" r="2.2"/>
  <circle class="st0" cx="2843.6" cy="460.1" r="2.2"/>
  <circle class="st0" cx="3048.6" cy="140.8" r="2.2"/>
  <circle class="st0" cx="3000.2" cy="584.9" r="2.2"/>
  <circle class="st0" cx="2530.9" cy="771.8" r="2.2"/>
  <circle class="st0" cx="2568.7" cy="902.4" r="2.2"/>
  <circle class="st0" cx="2883.2" cy="1106.7" r="2.2"/>
  <circle class="st0" cx="2614.2" cy="366.4" r="2.2"/>
  <circle class="st0" cx="3002.4" cy="291.7" r="3.3"/>
  <circle class="st0" cx="2658.5" cy="228.8" r="3.3"/>
  <circle class="st0" cx="2930.9" cy="739.3" r="2.5"/>
  <circle class="st0" cx="2683.4" cy="640.5" r="3.3"/>
  <circle class="st0" cx="2447.1" cy="430.9" r="3.3"/>
  <circle class="st0" cx="2432.5" cy="231.5" r="2.2"/>
  <circle class="st0" cx="2525.4" cy="521.6" r="2.2"/>
  <circle class="st0" cx="686.7" cy="2132.3" r="2.5"/>
  <circle class="st0" cx="396.8" cy="1486.6" r="5.6"/>
  <circle class="st0" cx="276.4" cy="1489.7" r="5.6"/>
  <circle class="st0" cx="520.4" cy="1673.2" r="3.3"/>
  <circle class="st0" cx="476.2" cy="1984.8" r="2.2"/>
  <circle class="st0" cx="184.7" cy="1779.8" r="2.2"/>
  <circle class="st0" cx="490.8" cy="1943" r="2.2"/>
  <circle class="st0" cx="625.5" cy="1590.6" r="2.2"/>
  <circle class="st0" cx="581.6" cy="1536.2" r="2.2"/>
  <circle class="st0" cx="424.6" cy="1395.4" r="2.2"/>
  <circle class="st0" cx="727.6" cy="1337" r="2.2"/>
  <circle class="st0" cx="422.4" cy="1121.7" r="2.2"/>
  <circle class="st0" cx="583.9" cy="1729.6" r="2.2"/>
  <circle class="st0" cx="281.2" cy="2009.4" r="2.2"/>
  <circle class="st0" cx="378.2" cy="1237.2" r="3.3"/>
  <circle class="st0" cx="224.7" cy="1287.8" r="2.2"/>
  <circle class="st0" cx="348.5" cy="1220.8" r="5.6"/>
  <circle class="st0" cx="127" cy="1981.5" r="3.3"/>
  <circle class="st0" cx="145.2" cy="1758.3" r="5.6"/>
  <circle class="st0" cx="122.5" cy="1965.2" r="2.2"/>
  <circle class="st0" cx="82" cy="1590.6" r="2.2"/>
  <circle class="st0" cx="115.9" cy="1312.8" r="2.2"/>
  <circle class="st0" cx="181.2" cy="1851.5" r="2.2"/>
  <circle class="st0" cx="1406.4" cy="2128.6" r="2.5"/>
  <circle class="st0" cx="1406.4" cy="1490.5" r="5.6"/>
  <circle class="st0" cx="1318.9" cy="1919.3" r="3.3"/>
  <circle class="st0" cx="1141.8" cy="1307.7" r="3.3"/>
  <circle class="st0" cx="1520.5" cy="2004.5" r="2.2"/>
  <circle class="st0" cx="1333.2" cy="2076.6" r="2.2"/>
  <circle class="st0" cx="1135.2" cy="2108.5" r="2.2"/>
  <circle class="st0" cx="1530.3" cy="1597.6" r="2.2"/>
  <circle class="st0" cx="1070" cy="1637.7" r="2.2"/>
  <circle class="st0" cx="1183" cy="1597.7" r="2.2"/>
  <circle class="st0" cx="1520.5" cy="1132.5" r="2.2"/>
  <circle class="st0" cx="1262.6" cy="1188.9" r="2.2"/>
  <circle class="st0" cx="1145.7" cy="1654" r="2.2"/>
  <circle class="st0" cx="857" cy="2026.7" r="2.2"/>
  <circle class="st0" cx="1531.6" cy="1187.9" r="3.3"/>
  <circle class="st0" cx="1099.3" cy="1434.2" r="3.3"/>
  <circle class="st0" cx="1093.7" cy="1205.5" r="3.3"/>
  <circle class="st0" cx="983.6" cy="2149.9" r="3.3"/>
  <circle class="st0" cx="950.9" cy="1296.9" r="5.6"/>
  <circle class="st0" cx="854.8" cy="2025.8" r="2.2"/>
  <circle class="st0" cx="931.6" cy="1663" r="2.2"/>
  <circle class="st0" cx="908.9" cy="1108.3" r="2.2"/>
  <circle class="st0" cx="919.9" cy="1163.7" r="3.3"/>
  <circle class="st0" cx="2338.6" cy="2120.9" r="5.6"/>
  <circle class="st0" cx="2141.9" cy="1345.3" r="5.6"/>
  <circle class="st0" cx="1936.1" cy="1813.4" r="3.3"/>
  <circle class="st0" cx="2180.4" cy="1359" r="3.3"/>
  <circle class="st0" cx="2264.1" cy="2020.9" r="2.2"/>
  <circle class="st0" cx="2196.1" cy="1970.8" r="2.2"/>
  <circle class="st0" cx="1980.8" cy="2023.1" r="2.2"/>
  <circle class="st0" cx="2303.5" cy="1535.8" r="2.2"/>
  <circle class="st0" cx="1929.5" cy="1410" r="2.2"/>
  <circle class="st0" cx="2116.5" cy="1278.6" r="2.2"/>
  <circle class="st0" cx="2336.4" cy="1385.1" r="2.2"/>
  <circle class="st0" cx="2029" cy="1247.6" r="2.2"/>
  <circle class="st0" cx="2359.3" cy="1585.8" r="2.2"/>
  <circle class="st0" cx="1959" cy="1859.5" r="2.2"/>
  <circle class="st0" cx="2153.1" cy="1110" r="3.3"/>
  <circle class="st0" cx="1972.9" cy="1659.2" r="3.3"/>
  <circle class="st0" cx="1945.5" cy="1324.2" r="2.2"/>
  <circle class="st0" cx="1806.7" cy="2099.5" r="3.3"/>
  <circle class="st0" cx="1618.4" cy="1211.5" r="5.6"/>
  <circle class="st0" cx="1618.4" cy="1895" r="2.2"/>
  <circle class="st0" cx="1691.9" cy="1511.6" r="2.2"/>
  <circle class="st0" cx="1716.2" cy="1340" r="2.2"/>
  <circle class="st0" cx="1612.8" cy="1307.5" r="3.3"/>
  <circle class="st0" cx="2852.1" cy="1595.3" r="5.6"/>
  <circle class="st0" cx="3016.5" cy="1250.8" r="5.6"/>
  <circle class="st0" cx="3039.8" cy="1730.7" r="3.3"/>
  <circle class="st0" cx="2837.7" cy="1873.5" r="3.3"/>
  <circle class="st0" cx="2840.5" cy="1709.6" r="2.2"/>
  <circle class="st0" cx="3002.2" cy="1863.2" r="2.2"/>
  <circle class="st0" cx="3114.3" cy="1879" r="2.2"/>
  <circle class="st0" cx="3104.5" cy="1413.2" r="2.2"/>
  <circle class="st0" cx="2995.9" cy="2136.7" r="2.2"/>
  <circle class="st0" cx="3043.1" cy="1284.3" r="2.2"/>
  <circle class="st0" cx="2963.5" cy="1228.7" r="2.2"/>
  <circle class="st0" cx="2865.8" cy="1230.9" r="2.2"/>
  <circle class="st0" cx="2438.8" cy="1937.3" r="2.2"/>
  <circle class="st0" cx="2599.1" cy="1905.3" r="2.2"/>
  <circle class="st0" cx="2852.1" cy="1416.5" r="3.3"/>
  <circle class="st0" cx="3152.2" cy="1493.2" r="3.3"/>
  <circle class="st0" cx="2727.4" cy="1122.8" r="2.2"/>
  <circle class="st0" cx="2761.6" cy="2165.5" r="5.6"/>
  <circle class="st0" cx="2468.7" cy="1904.5" r="3.3"/>
  <circle class="st0" cx="2445.4" cy="1812.3" r="2.2"/>
  <circle class="st0" cx="2420.5" cy="1396.5" r="2.2"/>
  <circle class="st0" cx="2442.9" cy="1646" r="2.2"/>
  <circle class="st0" cx="2507.2" cy="1706.5" r="2.5"/>
</svg>