<?xml version="1.0" encoding="UTF-8"?>
<svg id="stars-2" xmlns="http://www.w3.org/2000/svg" version="1.1" viewBox="0 0 3165.6 2185.1">
  <!-- Generator: Adobe Illustrator 29.2.1, SVG Export Plug-In . SVG Version: 2.1.0 Build 116)  -->
  <defs>
    <style>
      .st0 {
        fill: #5488a3;
      }
    </style>
  </defs>
  <circle class="st0" cx="452.9" cy="1017.4" r="2.5"/>
  <circle class="st0" cx="750.6" cy="215" r="5.6"/>
  <circle class="st0" cx="609.5" cy="821.1" r="3.3"/>
  <circle class="st0" cx="437.2" cy="251.3" r="3.3"/>
  <circle class="st0" cx="377.8" cy="824.4" r="2.2"/>
  <circle class="st0" cx="498" cy="966.5" r="2.2"/>
  <circle class="st0" cx="620.5" cy="842.1" r="2.2"/>
  <circle class="st0" cx="634" cy="418" r="2.2"/>
  <circle class="st0" cx="405.2" cy="605.7" r="2.2"/>
  <circle class="st0" cx="371" cy="491.6" r="2.2"/>
  <circle class="st0" cx="708.6" cy="26.4" r="2.2"/>
  <circle class="st0" cx="450.6" cy="82.9" r="2.2"/>
  <circle class="st0" cx="333.7" cy="547.9" r="2.2"/>
  <circle class="st0" cx="45" cy="920.6" r="2.2"/>
  <circle class="st0" cx="719.6" cy="81.8" r="3.3"/>
  <circle class="st0" cx="287.3" cy="328.1" r="3.3"/>
  <circle class="st0" cx="281.7" cy="99.4" r="3.3"/>
  <circle class="st0" cx="171.7" cy="1043.9" r="3.3"/>
  <circle class="st0" cx="139" cy="190.8" r="5.6"/>
  <circle class="st0" cx="42.9" cy="919.7" r="2.2"/>
  <circle class="st0" cx="119.7" cy="556.9" r="2.2"/>
  <circle class="st0" cx="96.9" cy="2.2" r="2.2"/>
  <circle class="st0" cx="107.9" cy="57.6" r="3.3"/>
  <circle class="st0" cx="1515.5" cy="1058.9" r="5.6"/>
  <circle class="st0" cx="1318.8" cy="283.3" r="5.6"/>
  <circle class="st0" cx="1112.9" cy="751.4" r="3.3"/>
  <circle class="st0" cx="1357.2" cy="297.1" r="3.3"/>
  <circle class="st0" cx="1440.9" cy="958.9" r="2.2"/>
  <circle class="st0" cx="1373" cy="908.8" r="2.2"/>
  <circle class="st0" cx="1157.6" cy="961.2" r="2.2"/>
  <circle class="st0" cx="1480.4" cy="473.8" r="2.2"/>
  <circle class="st0" cx="1021" cy="462.5" r="2.2"/>
  <circle class="st0" cx="1174.3" cy="218.9" r="2.2"/>
  <circle class="st0" cx="1515.5" cy="153.9" r="2.2"/>
  <circle class="st0" cx="1419.6" cy="701.6" r="2.2"/>
  <circle class="st0" cx="1152.1" cy="659.3" r="2.2"/>
  <circle class="st0" cx="1090.2" cy="826.1" r="2.2"/>
  <circle class="st0" cx="1369.7" cy="78.3" r="3.3"/>
  <circle class="st0" cx="1112.9" cy="451" r="3.3"/>
  <circle class="st0" cx="980.2" cy="81.6" r="2.2"/>
  <circle class="st0" cx="1290.1" cy="933.5" r="3.3"/>
  <circle class="st0" cx="916.6" cy="54.1" r="5.6"/>
  <circle class="st0" cx="927.7" cy="911.5" r="2.2"/>
  <circle class="st0" cx="893" cy="482.4" r="2.2"/>
  <circle class="st0" cx="903.8" cy="129.7" r="2.2"/>
  <circle class="st0" cx="930.9" cy="392" r="3.3"/>
  <circle class="st0" cx="1983.2" cy="674.1" r="5.6"/>
  <circle class="st0" cx="2342.9" cy="85.3" r="5.6"/>
  <circle class="st0" cx="2285.4" cy="858.6" r="3.3"/>
  <circle class="st0" cx="2089.3" cy="65.2" r="3.3"/>
  <circle class="st0" cx="2353.9" cy="942.6" r="2.2"/>
  <circle class="st0" cx="2193.8" cy="749.3" r="2.2"/>
  <circle class="st0" cx="2262.2" cy="766.4" r="2.2"/>
  <circle class="st0" cx="2255.5" cy="382.5" r="2.2"/>
  <circle class="st0" cx="2201" cy="1066.7" r="2.2"/>
  <circle class="st0" cx="2248.1" cy="214.2" r="2.2"/>
  <circle class="st0" cx="2168.5" cy="158.6" r="2.2"/>
  <circle class="st0" cx="2070.8" cy="160.8" r="2.2"/>
  <circle class="st0" cx="1643.8" cy="867.3" r="2.2"/>
  <circle class="st0" cx="1804.1" cy="835.2" r="2.2"/>
  <circle class="st0" cx="2057.2" cy="346.4" r="3.3"/>
  <circle class="st0" cx="2357.2" cy="423.1" r="3.3"/>
  <circle class="st0" cx="1932.4" cy="52.7" r="2.2"/>
  <circle class="st0" cx="1966.7" cy="1095.4" r="5.6"/>
  <circle class="st0" cx="1673.7" cy="834.4" r="3.3"/>
  <circle class="st0" cx="1650.5" cy="742.2" r="2.2"/>
  <circle class="st0" cx="1625.5" cy="326.4" r="2.2"/>
  <circle class="st0" cx="1647.9" cy="575.9" r="2.2"/>
  <circle class="st0" cx="1712.2" cy="636.4" r="2.5"/>
  <circle class="st0" cx="3118.7" cy="728.5" r="5.6"/>
  <circle class="st0" cx="2764" cy="127.7" r="5.6"/>
  <circle class="st0" cx="3091.7" cy="810.4" r="3.3"/>
  <circle class="st0" cx="2826.4" cy="836.9" r="2.2"/>
  <circle class="st0" cx="2598.6" cy="638.3" r="2.2"/>
  <circle class="st0" cx="2612.8" cy="972.8" r="2.2"/>
  <circle class="st0" cx="3058.8" cy="455.1" r="3.3"/>
  <circle class="st0" cx="2959.6" cy="381.7" r="2.2"/>
  <circle class="st0" cx="2987.4" cy="989.6" r="2.2"/>
  <circle class="st0" cx="2886.3" cy="355.1" r="2.2"/>
  <circle class="st0" cx="3046" cy="615.1" r="2.2"/>
  <circle class="st0" cx="2859.5" cy="209.8" r="2.2"/>
  <circle class="st0" cx="2602" cy="937.7" r="2.2"/>
  <circle class="st0" cx="3154.8" cy="821.8" r="2.2"/>
  <circle class="st0" cx="2631.5" cy="303.4" r="3.3"/>
  <circle class="st0" cx="2976.2" cy="370" r="3.3"/>
  <circle class="st0" cx="2648.5" cy="107.3" r="3.3"/>
  <circle class="st0" cx="2625.8" cy="694.7" r="5.6"/>
  <circle class="st0" cx="2419.5" cy="651.4" r="3.3"/>
  <circle class="st0" cx="2494" cy="799.8" r="2.2"/>
  <circle class="st0" cx="2484.3" cy="334" r="2.2"/>
  <circle class="st0" cx="2408.9" cy="699.4" r="2.2"/>
  <circle class="st0" cx="2891.1" cy="571.2" r="2.5"/>
  <circle class="st0" cx="620" cy="1656.3" r="5.6"/>
  <circle class="st0" cx="391.2" cy="1950.8" r="5.6"/>
  <circle class="st0" cx="315" cy="1564.3" r="3.3"/>
  <circle class="st0" cx="526.7" cy="1809" r="2.2"/>
  <circle class="st0" cx="327.1" cy="1710.8" r="2.2"/>
  <circle class="st0" cx="640.5" cy="1973.6" r="2.2"/>
  <circle class="st0" cx="636" cy="1556.1" r="2.2"/>
  <circle class="st0" cx="571.6" cy="1113" r="2.2"/>
  <circle class="st0" cx="396.8" cy="1555.5" r="2.2"/>
  <circle class="st0" cx="544.9" cy="1212.3" r="2.2"/>
  <circle class="st0" cx="603.3" cy="1634.4" r="2.2"/>
  <circle class="st0" cx="447.9" cy="1811.2" r="2.2"/>
  <circle class="st0" cx="266.2" cy="2051.5" r="2.2"/>
  <circle class="st0" cx="785.1" cy="2091.2" r="2.2"/>
  <circle class="st0" cx="234.5" cy="1364.9" r="2.2"/>
  <circle class="st0" cx="276.6" cy="1110.5" r="5.6"/>
  <circle class="st0" cx="120.4" cy="1875.7" r="3.3"/>
  <circle class="st0" cx="748.5" cy="1729.6" r="2.5"/>
  <circle class="st0" cx="118.1" cy="1840.2" r="3.3"/>
  <circle class="st0" cx="47.9" cy="1569.8" r="3.3"/>
  <circle class="st0" cx="75" cy="1170.6" r="2.2"/>
  <circle class="st0" cx="219.4" cy="1616.8" r="2.2"/>
  <circle class="st0" cx="1264.9" cy="2123.5" r="2.5"/>
  <circle class="st0" cx="1562.6" cy="1321.1" r="5.6"/>
  <circle class="st0" cx="1421.5" cy="1927.2" r="3.3"/>
  <circle class="st0" cx="1249.2" cy="1357.4" r="3.3"/>
  <circle class="st0" cx="1189.7" cy="1930.5" r="2.2"/>
  <circle class="st0" cx="1310" cy="2072.6" r="2.2"/>
  <circle class="st0" cx="1432.5" cy="1948.2" r="2.2"/>
  <circle class="st0" cx="1446" cy="1524.1" r="2.2"/>
  <circle class="st0" cx="1217.2" cy="1711.8" r="2.2"/>
  <circle class="st0" cx="1211" cy="1410.5" r="2.2"/>
  <circle class="st0" cx="1514" cy="1352.1" r="2.2"/>
  <circle class="st0" cx="1208.8" cy="1136.8" r="2.2"/>
  <circle class="st0" cx="1370.3" cy="1744.7" r="2.2"/>
  <circle class="st0" cx="1067.6" cy="2024.5" r="2.2"/>
  <circle class="st0" cx="1164.6" cy="1252.3" r="3.3"/>
  <circle class="st0" cx="1011.1" cy="1302.9" r="2.2"/>
  <circle class="st0" cx="1134.9" cy="1235.9" r="5.6"/>
  <circle class="st0" cx="913.4" cy="1996.5" r="3.3"/>
  <circle class="st0" cx="931.6" cy="1773.3" r="5.6"/>
  <circle class="st0" cx="908.9" cy="1980.3" r="2.2"/>
  <circle class="st0" cx="868.4" cy="1605.7" r="2.2"/>
  <circle class="st0" cx="902.3" cy="1327.9" r="2.2"/>
  <circle class="st0" cx="967.6" cy="1866.6" r="2.2"/>
  <circle class="st0" cx="2204" cy="2099.5" r="2.5"/>
  <circle class="st0" cx="2204" cy="1461.5" r="5.6"/>
  <circle class="st0" cx="2116.5" cy="1890.3" r="3.3"/>
  <circle class="st0" cx="1939.4" cy="1278.6" r="3.3"/>
  <circle class="st0" cx="2318.1" cy="1975.4" r="2.2"/>
  <path class="st0" d="M2130.8,2045.4c1.2,0,2.2,1,2.2,2.2s-1,2.2-2.2,2.2-2.2-1-2.2-2.2,1-2.2,2.2-2.2Z"/>
  <circle class="st0" cx="1932.8" cy="2079.5" r="2.2"/>
  <circle class="st0" cx="2327.9" cy="1568.5" r="2.2"/>
  <circle class="st0" cx="1867.6" cy="1608.7" r="2.2"/>
  <circle class="st0" cx="1997.5" cy="1280.9" r="2.2"/>
  <circle class="st0" cx="2338.6" cy="1215.8" r="2.2"/>
  <circle class="st0" cx="2242.7" cy="1763.5" r="2.2"/>
  <circle class="st0" cx="1975.2" cy="1721.3" r="2.2"/>
  <circle class="st0" cx="1913.3" cy="1888" r="2.2"/>
  <circle class="st0" cx="2192.9" cy="1140.3" r="3.3"/>
  <circle class="st0" cx="1936.1" cy="1512.9" r="3.3"/>
  <circle class="st0" cx="1803.4" cy="1143.6" r="2.2"/>
  <circle class="st0" cx="2113.2" cy="1995.4" r="3.3"/>
  <circle class="st0" cx="1739.8" cy="1116.1" r="5.6"/>
  <circle class="st0" cx="1750.8" cy="1973.5" r="2.2"/>
  <circle class="st0" cx="1716.2" cy="1544.3" r="2.2"/>
  <circle class="st0" cx="1727" cy="1191.7" r="2.2"/>
  <circle class="st0" cx="1754.1" cy="1454" r="3.3"/>
  <circle class="st0" cx="2778.2" cy="1744.1" r="5.6"/>
  <circle class="st0" cx="3137.9" cy="1155.4" r="5.6"/>
  <circle class="st0" cx="3080.4" cy="1928.7" r="3.3"/>
  <circle class="st0" cx="2884.3" cy="1135.3" r="3.3"/>
  <circle class="st0" cx="3148.9" cy="2012.7" r="2.2"/>
  <circle class="st0" cx="2988.7" cy="1819.4" r="2.2"/>
  <circle class="st0" cx="3057.1" cy="1836.5" r="2.2"/>
  <circle class="st0" cx="3050.5" cy="1452.6" r="2.2"/>
  <circle class="st0" cx="2715.9" cy="1425" r="2.2"/>
  <circle class="st0" cx="2902.9" cy="1293.7" r="2.2"/>
  <circle class="st0" cx="3122.8" cy="1400.1" r="2.2"/>
  <circle class="st0" cx="2815.4" cy="1262.6" r="2.2"/>
  <circle class="st0" cx="3145.7" cy="1600.8" r="2.2"/>
  <circle class="st0" cx="2745.4" cy="1874.6" r="2.2"/>
  <circle class="st0" cx="2939.5" cy="1125" r="3.3"/>
  <circle class="st0" cx="2759.3" cy="1674.2" r="3.3"/>
  <circle class="st0" cx="2731.9" cy="1339.3" r="2.2"/>
  <circle class="st0" cx="2593.1" cy="2114.6" r="3.3"/>
  <circle class="st0" cx="2404.8" cy="1226.6" r="5.6"/>
  <circle class="st0" cx="2404.8" cy="1910" r="2.2"/>
  <circle class="st0" cx="2478.3" cy="1526.6" r="2.2"/>
  <circle class="st0" cx="2502.6" cy="1355.1" r="2.2"/>
  <circle class="st0" cx="2399.2" cy="1322.5" r="3.3"/>
</svg>