<?xml version="1.0" encoding="UTF-8"?>
<svg id="stars-7" xmlns="http://www.w3.org/2000/svg" version="1.1" viewBox="0 0 3165.6 2185.1">
  <!-- Generator: Adobe Illustrator 29.2.1, SVG Export Plug-In . SVG Version: 2.1.0 Build 116)  -->
  <defs>
    <style>
      .st0 {
        fill: #5488a3;
      }
    </style>
  </defs>
  <circle class="st0" cx="731.3" cy="691.4" r="5.6"/>
  <circle class="st0" cx="376.6" cy="90.7" r="5.6"/>
  <circle class="st0" cx="704.3" cy="773.3" r="3.3"/>
  <circle class="st0" cx="439" cy="799.8" r="2.2"/>
  <circle class="st0" cx="211.2" cy="601.2" r="2.2"/>
  <circle class="st0" cx="225.4" cy="935.8" r="2.2"/>
  <circle class="st0" cx="671.4" cy="418" r="3.3"/>
  <circle class="st0" cx="572.2" cy="344.6" r="2.2"/>
  <circle class="st0" cx="456.2" cy="423" r="2.2"/>
  <circle class="st0" cx="661.2" cy="103.8" r="2.2"/>
  <circle class="st0" cx="612.8" cy="547.9" r="2.2"/>
  <circle class="st0" cx="143.5" cy="734.7" r="2.2"/>
  <circle class="st0" cx="181.3" cy="865.4" r="2.2"/>
  <circle class="st0" cx="495.8" cy="1069.7" r="2.2"/>
  <circle class="st0" cx="226.8" cy="329.3" r="2.2"/>
  <circle class="st0" cx="615" cy="254.6" r="3.3"/>
  <circle class="st0" cx="271.1" cy="191.7" r="3.3"/>
  <circle class="st0" cx="543.5" cy="702.3" r="2.5"/>
  <circle class="st0" cx="296" cy="603.5" r="3.3"/>
  <circle class="st0" cx="59.7" cy="393.8" r="3.3"/>
  <circle class="st0" cx="45.1" cy="194.5" r="2.2"/>
  <circle class="st0" cx="138" cy="484.6" r="2.2"/>
  <circle class="st0" cx="1447.6" cy="1056.4" r="2.5"/>
  <circle class="st0" cx="1157.6" cy="410.6" r="5.6"/>
  <circle class="st0" cx="1037.3" cy="413.7" r="5.6"/>
  <circle class="st0" cx="1281.2" cy="597.2" r="3.3"/>
  <circle class="st0" cx="1237" cy="908.8" r="2.2"/>
  <circle class="st0" cx="945.5" cy="703.8" r="2.2"/>
  <circle class="st0" cx="1251.7" cy="867" r="2.2"/>
  <circle class="st0" cx="1386.4" cy="514.6" r="2.2"/>
  <circle class="st0" cx="1342.5" cy="460.2" r="2.2"/>
  <circle class="st0" cx="1157.6" cy="479.5" r="2.2"/>
  <circle class="st0" cx="1305.8" cy="136.4" r="2.2"/>
  <circle class="st0" cx="1364.2" cy="558.5" r="2.2"/>
  <circle class="st0" cx="1208.7" cy="735.2" r="2.2"/>
  <circle class="st0" cx="1027.1" cy="975.5" r="2.2"/>
  <circle class="st0" cx="1545.9" cy="1015.3" r="2.2"/>
  <circle class="st0" cx="995.4" cy="288.9" r="2.2"/>
  <circle class="st0" cx="1037.4" cy="34.6" r="5.6"/>
  <circle class="st0" cx="881.3" cy="799.8" r="3.3"/>
  <circle class="st0" cx="1509.3" cy="653.6" r="2.5"/>
  <circle class="st0" cx="879" cy="764.2" r="3.3"/>
  <circle class="st0" cx="808.7" cy="493.8" r="3.3"/>
  <circle class="st0" cx="835.9" cy="94.7" r="2.2"/>
  <circle class="st0" cx="980.2" cy="540.8" r="2.2"/>
  <circle class="st0" cx="2053.9" cy="1039.4" r="2.5"/>
  <circle class="st0" cx="2351.6" cy="237" r="5.6"/>
  <circle class="st0" cx="2210.5" cy="843.1" r="3.3"/>
  <circle class="st0" cx="2038.2" cy="273.3" r="3.3"/>
  <circle class="st0" cx="1978.8" cy="846.4" r="2.2"/>
  <circle class="st0" cx="2099" cy="988.5" r="2.2"/>
  <circle class="st0" cx="2221.5" cy="864.1" r="2.2"/>
  <circle class="st0" cx="2235" cy="440" r="2.2"/>
  <circle class="st0" cx="2006.2" cy="627.7" r="2.2"/>
  <circle class="st0" cx="1972" cy="513.6" r="2.2"/>
  <circle class="st0" cx="2309.6" cy="48.4" r="2.2"/>
  <circle class="st0" cx="2051.6" cy="104.9" r="2.2"/>
  <circle class="st0" cx="1934.7" cy="569.9" r="2.2"/>
  <circle class="st0" cx="1646" cy="942.6" r="2.2"/>
  <circle class="st0" cx="2320.6" cy="103.8" r="3.3"/>
  <circle class="st0" cx="1888.3" cy="350.1" r="3.3"/>
  <circle class="st0" cx="1882.7" cy="121.4" r="3.3"/>
  <circle class="st0" cx="1772.7" cy="1065.9" r="3.3"/>
  <circle class="st0" cx="1740" cy="212.8" r="5.6"/>
  <circle class="st0" cx="1643.9" cy="941.7" r="2.2"/>
  <circle class="st0" cx="1720.7" cy="578.9" r="2.2"/>
  <circle class="st0" cx="1697.9" cy="24.2" r="2.2"/>
  <circle class="st0" cx="1708.9" cy="79.6" r="3.3"/>
  <circle class="st0" cx="3116.5" cy="1080.9" r="5.6"/>
  <circle class="st0" cx="2919.8" cy="305.3" r="5.6"/>
  <circle class="st0" cx="2713.9" cy="773.4" r="3.3"/>
  <circle class="st0" cx="2958.2" cy="319.1" r="3.3"/>
  <circle class="st0" cx="3041.9" cy="980.9" r="2.2"/>
  <circle class="st0" cx="2974" cy="930.8" r="2.2"/>
  <circle class="st0" cx="2758.6" cy="983.2" r="2.2"/>
  <circle class="st0" cx="3081.4" cy="495.8" r="2.2"/>
  <circle class="st0" cx="2622" cy="484.5" r="2.2"/>
  <circle class="st0" cx="2775.3" cy="240.9" r="2.2"/>
  <circle class="st0" cx="3116.5" cy="175.9" r="2.2"/>
  <circle class="st0" cx="3020.6" cy="723.6" r="2.2"/>
  <circle class="st0" cx="2753.1" cy="681.3" r="2.2"/>
  <circle class="st0" cx="2691.2" cy="848.1" r="2.2"/>
  <circle class="st0" cx="2970.7" cy="100.3" r="3.3"/>
  <circle class="st0" cx="2713.9" cy="473" r="3.3"/>
  <circle class="st0" cx="2581.2" cy="103.6" r="2.2"/>
  <circle class="st0" cx="2891.1" cy="955.5" r="3.3"/>
  <circle class="st0" cx="2517.6" cy="76.1" r="5.6"/>
  <circle class="st0" cx="2528.7" cy="933.5" r="2.2"/>
  <circle class="st0" cx="2494" cy="504.4" r="2.2"/>
  <circle class="st0" cx="2504.8" cy="151.7" r="2.2"/>
  <circle class="st0" cx="2531.9" cy="414" r="3.3"/>
  <circle class="st0" cx="407.7" cy="1743.1" r="5.6"/>
  <circle class="st0" cx="767.5" cy="1154.3" r="5.6"/>
  <circle class="st0" cx="710" cy="1927.7" r="3.3"/>
  <circle class="st0" cx="513.9" cy="1134.3" r="3.3"/>
  <circle class="st0" cx="778.5" cy="2011.7" r="2.2"/>
  <circle class="st0" cx="618.3" cy="1818.4" r="2.2"/>
  <circle class="st0" cx="686.7" cy="1835.5" r="2.2"/>
  <circle class="st0" cx="680.1" cy="1451.5" r="2.2"/>
  <circle class="st0" cx="625.5" cy="2135.7" r="2.2"/>
  <circle class="st0" cx="672.7" cy="1283.3" r="2.2"/>
  <circle class="st0" cx="593.1" cy="1227.6" r="2.2"/>
  <circle class="st0" cx="495.4" cy="1229.8" r="2.2"/>
  <circle class="st0" cx="68.4" cy="1936.3" r="2.2"/>
  <circle class="st0" cx="228.7" cy="1904.3" r="2.2"/>
  <circle class="st0" cx="481.7" cy="1415.5" r="3.3"/>
  <circle class="st0" cx="781.8" cy="1492.2" r="3.3"/>
  <circle class="st0" cx="357" cy="1121.7" r="2.2"/>
  <circle class="st0" cx="391.2" cy="2164.4" r="5.6"/>
  <circle class="st0" cx="98.3" cy="1903.5" r="3.3"/>
  <circle class="st0" cx="75" cy="1811.3" r="2.2"/>
  <circle class="st0" cx="50.1" cy="1395.4" r="2.2"/>
  <circle class="st0" cx="72.5" cy="1644.9" r="2.2"/>
  <circle class="st0" cx="136.8" cy="1705.4" r="2.5"/>
  <circle class="st0" cx="1543.3" cy="1797.5" r="5.6"/>
  <circle class="st0" cx="1188.6" cy="1196.8" r="5.6"/>
  <circle class="st0" cx="1516.2" cy="1879.4" r="3.3"/>
  <circle class="st0" cx="1251" cy="1905.9" r="2.2"/>
  <circle class="st0" cx="1023.2" cy="1707.3" r="2.2"/>
  <circle class="st0" cx="1037.4" cy="2041.9" r="2.2"/>
  <circle class="st0" cx="1483.4" cy="1524.1" r="3.3"/>
  <circle class="st0" cx="1384.1" cy="1450.7" r="2.2"/>
  <circle class="st0" cx="1411.9" cy="2058.7" r="2.2"/>
  <circle class="st0" cx="1310.8" cy="1424.2" r="2.2"/>
  <circle class="st0" cx="1470.6" cy="1684.2" r="2.2"/>
  <circle class="st0" cx="1284" cy="1278.9" r="2.2"/>
  <circle class="st0" cx="1026.5" cy="2006.7" r="2.2"/>
  <circle class="st0" cx="1579.3" cy="1890.8" r="2.2"/>
  <circle class="st0" cx="1056" cy="1372.4" r="3.3"/>
  <circle class="st0" cx="1400.8" cy="1439" r="3.3"/>
  <circle class="st0" cx="1073" cy="1176.4" r="3.3"/>
  <circle class="st0" cx="1050.4" cy="1763.7" r="5.6"/>
  <circle class="st0" cx="844.1" cy="1720.5" r="3.3"/>
  <circle class="st0" cx="918.6" cy="1868.8" r="2.2"/>
  <circle class="st0" cx="908.9" cy="1403" r="2.2"/>
  <circle class="st0" cx="833.5" cy="1768.4" r="2.2"/>
  <circle class="st0" cx="1315.6" cy="1640.3" r="2.5"/>
  <circle class="st0" cx="2204" cy="1642.3" r="5.6"/>
  <circle class="st0" cx="1975.2" cy="1936.8" r="5.6"/>
  <circle class="st0" cx="1899" cy="1550.3" r="3.3"/>
  <circle class="st0" cx="2110.7" cy="1795" r="2.2"/>
  <circle class="st0" cx="1911.1" cy="1696.8" r="2.2"/>
  <circle class="st0" cx="2224.5" cy="1959.6" r="2.2"/>
  <circle class="st0" cx="2220" cy="1542.1" r="2.2"/>
  <circle class="st0" cx="2155.6" cy="1099" r="2.2"/>
  <circle class="st0" cx="1980.8" cy="1541.5" r="2.2"/>
  <circle class="st0" cx="2128.9" cy="1198.3" r="2.2"/>
  <circle class="st0" cx="2187.3" cy="1620.4" r="2.2"/>
  <circle class="st0" cx="2031.9" cy="1797.2" r="2.2"/>
  <circle class="st0" cx="1850.2" cy="2037.5" r="2.2"/>
  <circle class="st0" cx="2369.1" cy="2077.2" r="2.2"/>
  <circle class="st0" cx="1818.5" cy="1350.9" r="2.2"/>
  <circle class="st0" cx="1860.6" cy="1096.5" r="5.6"/>
  <circle class="st0" cx="1704.4" cy="1861.7" r="3.3"/>
  <circle class="st0" cx="2332.5" cy="1715.6" r="2.5"/>
  <circle class="st0" cx="1702.1" cy="1826.2" r="3.3"/>
  <circle class="st0" cx="1631.9" cy="1555.8" r="3.3"/>
  <circle class="st0" cx="1659" cy="1156.6" r="2.2"/>
  <circle class="st0" cx="1803.4" cy="1602.8" r="2.2"/>
  <circle class="st0" cx="2848.9" cy="2109.5" r="2.5"/>
  <circle class="st0" cx="3146.6" cy="1307.1" r="5.6"/>
  <circle class="st0" cx="3005.5" cy="1913.2" r="3.3"/>
  <circle class="st0" cx="2833.2" cy="1343.4" r="3.3"/>
  <circle class="st0" cx="2773.7" cy="1916.5" r="2.2"/>
  <circle class="st0" cx="2894" cy="2058.6" r="2.2"/>
  <circle class="st0" cx="3016.5" cy="1934.2" r="2.2"/>
  <circle class="st0" cx="3030" cy="1510.1" r="2.2"/>
  <circle class="st0" cx="2801.2" cy="1697.8" r="2.2"/>
  <circle class="st0" cx="2795" cy="1396.5" r="2.2"/>
  <circle class="st0" cx="3098" cy="1338.1" r="2.2"/>
  <circle class="st0" cx="2792.8" cy="1122.8" r="2.2"/>
  <circle class="st0" cx="2954.3" cy="1730.7" r="2.2"/>
  <circle class="st0" cx="2651.6" cy="2010.5" r="2.2"/>
  <circle class="st0" cx="2748.6" cy="1238.3" r="3.3"/>
  <circle class="st0" cx="2595.1" cy="1288.9" r="2.2"/>
  <circle class="st0" cx="2718.9" cy="1221.9" r="5.6"/>
  <circle class="st0" cx="2497.4" cy="1982.5" r="3.3"/>
  <circle class="st0" cx="2515.6" cy="1759.3" r="5.6"/>
  <circle class="st0" cx="2492.9" cy="1966.3" r="2.2"/>
  <circle class="st0" cx="2452.4" cy="1591.7" r="2.2"/>
  <circle class="st0" cx="2486.3" cy="1313.9" r="2.2"/>
  <circle class="st0" cx="2551.6" cy="1852.6" r="2.2"/>
</svg>