<?xml version="1.0" encoding="UTF-8"?>
<svg id="stars-8" xmlns="http://www.w3.org/2000/svg" version="1.1" viewBox="0 0 3165.6 2185.1">
  <!-- Generator: Adobe Illustrator 29.2.1, SVG Export Plug-In . SVG Version: 2.1.0 Build 116)  -->
  <defs>
    <style>
      .st0 {
        fill: #5488a3;
      }
    </style>
  </defs>
  <circle class="st0" cx="382.2" cy="652.1" r="5.6"/>
  <circle class="st0" cx="741.9" cy="63.3" r="5.6"/>
  <circle class="st0" cx="684.4" cy="836.6" r="3.3"/>
  <circle class="st0" cx="488.3" cy="43.2" r="3.3"/>
  <circle class="st0" cx="752.9" cy="920.6" r="2.2"/>
  <circle class="st0" cx="592.8" cy="727.3" r="2.2"/>
  <circle class="st0" cx="661.2" cy="744.4" r="2.2"/>
  <circle class="st0" cx="654.5" cy="360.5" r="2.2"/>
  <circle class="st0" cx="600" cy="1044.7" r="2.2"/>
  <circle class="st0" cx="647.1" cy="192.2" r="2.2"/>
  <circle class="st0" cx="567.5" cy="136.6" r="2.2"/>
  <circle class="st0" cx="469.8" cy="138.8" r="2.2"/>
  <circle class="st0" cx="42.8" cy="845.3" r="2.2"/>
  <circle class="st0" cx="203.1" cy="813.2" r="2.2"/>
  <circle class="st0" cx="456.2" cy="324.4" r="3.3"/>
  <circle class="st0" cx="756.2" cy="401.1" r="3.3"/>
  <circle class="st0" cx="331.4" cy="30.7" r="2.2"/>
  <circle class="st0" cx="365.7" cy="1073.4" r="5.6"/>
  <circle class="st0" cx="72.7" cy="812.4" r="3.3"/>
  <circle class="st0" cx="49.5" cy="720.2" r="2.2"/>
  <circle class="st0" cx="24.5" cy="304.4" r="2.2"/>
  <circle class="st0" cx="46.9" cy="553.9" r="2.2"/>
  <circle class="st0" cx="111.2" cy="614.4" r="2.5"/>
  <circle class="st0" cx="1517.7" cy="706.5" r="5.6"/>
  <circle class="st0" cx="1163" cy="105.7" r="5.6"/>
  <circle class="st0" cx="1490.7" cy="788.4" r="3.3"/>
  <circle class="st0" cx="1225.4" cy="814.9" r="2.2"/>
  <circle class="st0" cx="997.6" cy="616.3" r="2.2"/>
  <circle class="st0" cx="1011.8" cy="950.8" r="2.2"/>
  <circle class="st0" cx="1457.8" cy="433.1" r="3.3"/>
  <circle class="st0" cx="1358.6" cy="359.7" r="2.2"/>
  <circle class="st0" cx="1386.4" cy="967.6" r="2.2"/>
  <circle class="st0" cx="1285.3" cy="333.1" r="2.2"/>
  <circle class="st0" cx="1445" cy="593.1" r="2.2"/>
  <circle class="st0" cx="1258.5" cy="187.8" r="2.2"/>
  <circle class="st0" cx="1001" cy="915.7" r="2.2"/>
  <circle class="st0" cx="1553.8" cy="799.8" r="2.2"/>
  <circle class="st0" cx="1030.5" cy="281.4" r="3.3"/>
  <circle class="st0" cx="1375.2" cy="348" r="3.3"/>
  <circle class="st0" cx="1047.5" cy="85.3" r="3.3"/>
  <circle class="st0" cx="1024.8" cy="672.7" r="5.6"/>
  <circle class="st0" cx="818.5" cy="629.4" r="3.3"/>
  <circle class="st0" cx="893" cy="777.8" r="2.2"/>
  <circle class="st0" cx="883.3" cy="312" r="2.2"/>
  <circle class="st0" cx="807.9" cy="677.4" r="2.2"/>
  <circle class="st0" cx="1290.1" cy="549.2" r="2.5"/>
  <circle class="st0" cx="2195.4" cy="587.2" r="5.6"/>
  <circle class="st0" cx="1966.7" cy="881.8" r="5.6"/>
  <circle class="st0" cx="1890.4" cy="495.3" r="3.3"/>
  <circle class="st0" cx="2102.1" cy="739.9" r="2.2"/>
  <circle class="st0" cx="1902.5" cy="641.7" r="2.2"/>
  <circle class="st0" cx="2216" cy="904.6" r="2.2"/>
  <circle class="st0" cx="2211.4" cy="487" r="2.2"/>
  <circle class="st0" cx="2147.1" cy="44" r="2.2"/>
  <circle class="st0" cx="1972.2" cy="486.4" r="2.2"/>
  <circle class="st0" cx="2120.4" cy="143.3" r="2.2"/>
  <circle class="st0" cx="2178.8" cy="565.4" r="2.2"/>
  <circle class="st0" cx="2023.3" cy="742.2" r="2.2"/>
  <circle class="st0" cx="1841.7" cy="982.4" r="2.2"/>
  <circle class="st0" cx="2360.5" cy="1022.2" r="2.2"/>
  <circle class="st0" cx="1810" cy="295.8" r="2.2"/>
  <circle class="st0" cx="1852" cy="41.5" r="5.6"/>
  <circle class="st0" cx="1695.8" cy="806.7" r="3.3"/>
  <circle class="st0" cx="2323.9" cy="660.6" r="2.5"/>
  <circle class="st0" cx="1693.6" cy="771.1" r="3.3"/>
  <circle class="st0" cx="1623.3" cy="500.7" r="3.3"/>
  <circle class="st0" cx="1650.5" cy="101.6" r="2.2"/>
  <circle class="st0" cx="1794.8" cy="547.8" r="2.2"/>
  <circle class="st0" cx="2840.3" cy="1054.4" r="2.5"/>
  <circle class="st0" cx="3138.1" cy="252" r="5.6"/>
  <circle class="st0" cx="2996.9" cy="858.2" r="3.3"/>
  <circle class="st0" cx="2824.6" cy="288.4" r="3.3"/>
  <circle class="st0" cx="2765.2" cy="861.4" r="2.2"/>
  <circle class="st0" cx="2885.4" cy="1003.6" r="2.2"/>
  <circle class="st0" cx="3007.9" cy="879.2" r="2.2"/>
  <circle class="st0" cx="3021.4" cy="455.1" r="2.2"/>
  <circle class="st0" cx="2792.6" cy="642.8" r="2.2"/>
  <circle class="st0" cx="2786.5" cy="341.5" r="2.2"/>
  <circle class="st0" cx="3089.4" cy="283.1" r="2.2"/>
  <circle class="st0" cx="2784.2" cy="67.8" r="2.2"/>
  <circle class="st0" cx="2945.7" cy="675.6" r="2.2"/>
  <circle class="st0" cx="2643" cy="955.5" r="2.2"/>
  <circle class="st0" cx="2740.1" cy="183.2" r="3.3"/>
  <circle class="st0" cx="2586.6" cy="233.8" r="2.2"/>
  <circle class="st0" cx="2710.4" cy="166.8" r="5.6"/>
  <circle class="st0" cx="2488.8" cy="927.5" r="3.3"/>
  <circle class="st0" cx="2507.1" cy="704.3" r="5.6"/>
  <circle class="st0" cx="2484.3" cy="911.2" r="2.2"/>
  <circle class="st0" cx="2443.8" cy="536.6" r="2.2"/>
  <circle class="st0" cx="2477.8" cy="258.9" r="2.2"/>
  <circle class="st0" cx="2543.1" cy="797.6" r="2.2"/>
  <circle class="st0" cx="620" cy="2113.5" r="2.5"/>
  <circle class="st0" cx="620" cy="1475.5" r="5.6"/>
  <circle class="st0" cx="532.5" cy="1904.3" r="3.3"/>
  <circle class="st0" cx="355.4" cy="1292.6" r="3.3"/>
  <circle class="st0" cx="734.1" cy="1989.4" r="2.2"/>
  <circle class="st0" cx="546.8" cy="2061.6" r="2.2"/>
  <circle class="st0" cx="348.8" cy="2093.5" r="2.2"/>
  <circle class="st0" cx="743.9" cy="1582.5" r="2.2"/>
  <circle class="st0" cx="283.6" cy="1622.7" r="2.2"/>
  <circle class="st0" cx="413.5" cy="1294.9" r="2.2"/>
  <circle class="st0" cx="754.6" cy="1229.8" r="2.2"/>
  <circle class="st0" cx="658.7" cy="1777.5" r="2.2"/>
  <circle class="st0" cx="391.2" cy="1735.3" r="2.2"/>
  <circle class="st0" cx="329.3" cy="1902" r="2.2"/>
  <circle class="st0" cx="608.9" cy="1154.3" r="3.3"/>
  <circle class="st0" cx="352.1" cy="1526.9" r="3.3"/>
  <circle class="st0" cx="219.4" cy="1157.6" r="2.2"/>
  <circle class="st0" cx="529.2" cy="2009.4" r="3.3"/>
  <circle class="st0" cx="155.8" cy="1130.1" r="5.6"/>
  <circle class="st0" cx="166.8" cy="1987.5" r="2.2"/>
  <circle class="st0" cx="132.2" cy="1558.3" r="2.2"/>
  <circle class="st0" cx="143" cy="1205.7" r="2.2"/>
  <circle class="st0" cx="170.1" cy="1468" r="3.3"/>
  <circle class="st0" cx="1194.2" cy="1758.1" r="5.6"/>
  <circle class="st0" cx="1553.9" cy="1169.4" r="5.6"/>
  <circle class="st0" cx="1496.4" cy="1942.7" r="3.3"/>
  <circle class="st0" cx="1300.3" cy="1149.3" r="3.3"/>
  <circle class="st0" cx="1564.9" cy="2026.7" r="2.2"/>
  <circle class="st0" cx="1404.7" cy="1833.4" r="2.2"/>
  <circle class="st0" cx="1473.1" cy="1850.5" r="2.2"/>
  <circle class="st0" cx="1466.5" cy="1466.6" r="2.2"/>
  <circle class="st0" cx="1131.9" cy="1439" r="2.2"/>
  <circle class="st0" cx="1318.9" cy="1307.7" r="2.2"/>
  <circle class="st0" cx="1538.8" cy="1414.1" r="2.2"/>
  <circle class="st0" cx="1231.4" cy="1276.6" r="2.2"/>
  <circle class="st0" cx="1561.7" cy="1614.8" r="2.2"/>
  <circle class="st0" cx="1161.4" cy="1888.6" r="2.2"/>
  <circle class="st0" cx="1355.5" cy="1139" r="3.3"/>
  <circle class="st0" cx="1175.3" cy="1688.2" r="3.3"/>
  <circle class="st0" cx="1147.9" cy="1353.3" r="2.2"/>
  <circle class="st0" cx="1009.1" cy="2128.6" r="3.3"/>
  <circle class="st0" cx="820.8" cy="1240.6" r="5.6"/>
  <circle class="st0" cx="820.8" cy="1924" r="2.2"/>
  <circle class="st0" cx="894.3" cy="1540.6" r="2.2"/>
  <circle class="st0" cx="918.6" cy="1369.1" r="2.2"/>
  <circle class="st0" cx="815.2" cy="1336.5" r="3.3"/>
  <circle class="st0" cx="2065.7" cy="1580.2" r="5.6"/>
  <circle class="st0" cx="2230.1" cy="1235.7" r="5.6"/>
  <circle class="st0" cx="2253.4" cy="1715.6" r="3.3"/>
  <circle class="st0" cx="2051.2" cy="1858.5" r="3.3"/>
  <circle class="st0" cx="2054.1" cy="1694.5" r="2.2"/>
  <circle class="st0" cx="2215.8" cy="1848.1" r="2.2"/>
  <circle class="st0" cx="2327.9" cy="1864" r="2.2"/>
  <circle class="st0" cx="2318.1" cy="1398.2" r="2.2"/>
  <circle class="st0" cx="2209.5" cy="2029.6" r="2.2"/>
  <circle class="st0" cx="2108.4" cy="1395.1" r="2.2"/>
  <circle class="st0" cx="2268.2" cy="1655.1" r="2.2"/>
  <circle class="st0" cx="2081.6" cy="1249.8" r="2.2"/>
  <circle class="st0" cx="1824.1" cy="1977.6" r="2.2"/>
  <circle class="st0" cx="2376.9" cy="1861.7" r="2.2"/>
  <circle class="st0" cx="1853.6" cy="1343.3" r="3.3"/>
  <circle class="st0" cx="2198.4" cy="1410" r="3.3"/>
  <circle class="st0" cx="1870.6" cy="1147.3" r="3.3"/>
  <circle class="st0" cx="1848" cy="1734.7" r="5.6"/>
  <circle class="st0" cx="1641.7" cy="1691.4" r="3.3"/>
  <circle class="st0" cx="1716.2" cy="1839.8" r="2.2"/>
  <circle class="st0" cx="1706.5" cy="1374" r="2.2"/>
  <circle class="st0" cx="1631.1" cy="1739.4" r="2.2"/>
  <circle class="st0" cx="2113.2" cy="1611.2" r="2.5"/>
  <circle class="st0" cx="2990.4" cy="1657.3" r="5.6"/>
  <circle class="st0" cx="2761.6" cy="1951.9" r="5.6"/>
  <circle class="st0" cx="2685.4" cy="1565.4" r="3.3"/>
  <circle class="st0" cx="2897.1" cy="1810" r="2.2"/>
  <circle class="st0" cx="2697.5" cy="1711.8" r="2.2"/>
  <circle class="st0" cx="3010.9" cy="1974.7" r="2.2"/>
  <circle class="st0" cx="3006.4" cy="1557.1" r="2.2"/>
  <circle class="st0" cx="2942" cy="1114" r="2.2"/>
  <circle class="st0" cx="2852.1" cy="1515.1" r="2.2"/>
  <circle class="st0" cx="3057.1" cy="1195.9" r="2.2"/>
  <circle class="st0" cx="3008.8" cy="1640" r="2.2"/>
  <circle class="st0" cx="2539.4" cy="1826.8" r="2.2"/>
  <circle class="st0" cx="2577.2" cy="1957.4" r="2.2"/>
  <circle class="st0" cx="2891.8" cy="2161.8" r="2.2"/>
  <circle class="st0" cx="2622.8" cy="1421.4" r="2.2"/>
  <circle class="st0" cx="3010.9" cy="1346.7" r="3.3"/>
  <circle class="st0" cx="2667.1" cy="1283.8" r="3.3"/>
  <circle class="st0" cx="2939.5" cy="1794.4" r="2.5"/>
  <circle class="st0" cx="2692" cy="1695.5" r="3.3"/>
  <circle class="st0" cx="2455.7" cy="1485.9" r="3.3"/>
  <circle class="st0" cx="2441.1" cy="1286.6" r="2.2"/>
  <circle class="st0" cx="2534" cy="1576.7" r="2.2"/>
</svg>