<?xml version="1.0" encoding="UTF-8"?>
<svg id="stars-4" xmlns="http://www.w3.org/2000/svg" version="1.1" viewBox="0 0 3165.6 2185.1">
  <!-- Generator: Adobe Illustrator 29.2.1, SVG Export Plug-In . SVG Version: 2.1.0 Build 116)  -->
  <defs>
    <style>
      .st0 {
        fill: #5488a3;
      }
    </style>
  </defs>
  <circle class="st0" cx="729.1" cy="1043.9" r="5.6"/>
  <circle class="st0" cx="532.4" cy="268.3" r="5.6"/>
  <circle class="st0" cx="326.5" cy="736.4" r="3.3"/>
  <circle class="st0" cx="570.8" cy="282" r="3.3"/>
  <circle class="st0" cx="654.5" cy="943.9" r="2.2"/>
  <circle class="st0" cx="586.6" cy="893.7" r="2.2"/>
  <circle class="st0" cx="371.2" cy="946.1" r="2.2"/>
  <circle class="st0" cx="694" cy="458.7" r="2.2"/>
  <circle class="st0" cx="320" cy="333" r="2.2"/>
  <circle class="st0" cx="506.9" cy="201.6" r="2.2"/>
  <circle class="st0" cx="726.9" cy="308" r="2.2"/>
  <circle class="st0" cx="419.4" cy="170.5" r="2.2"/>
  <circle class="st0" cx="749.7" cy="508.8" r="2.2"/>
  <circle class="st0" cx="349.4" cy="782.5" r="2.2"/>
  <circle class="st0" cx="543.5" cy="33" r="3.3"/>
  <circle class="st0" cx="363.4" cy="582.1" r="3.3"/>
  <circle class="st0" cx="335.9" cy="247.2" r="2.2"/>
  <path class="st0" d="M197.1,1019.2c1.8,0,3.3,1.5,3.3,3.3s-1.5,3.3-3.3,3.3-3.3-1.5-3.3-3.3,1.5-3.3,3.3-3.3Z"/>
  <circle class="st0" cx="8.9" cy="134.5" r="5.6"/>
  <circle class="st0" cx="8.9" cy="818" r="2.2"/>
  <circle class="st0" cx="82.3" cy="434.5" r="2.2"/>
  <circle class="st0" cx="106.6" cy="263" r="2.2"/>
  <circle class="st0" cx="3.3" cy="230.4" r="3.3"/>
  <circle class="st0" cx="1242.6" cy="518.2" r="5.6"/>
  <circle class="st0" cx="1406.9" cy="173.7" r="5.6"/>
  <circle class="st0" cx="1430.2" cy="653.6" r="3.3"/>
  <circle class="st0" cx="1228.1" cy="796.5" r="3.3"/>
  <circle class="st0" cx="1231" cy="632.6" r="2.2"/>
  <circle class="st0" cx="1392.6" cy="786.1" r="2.2"/>
  <circle class="st0" cx="1504.7" cy="802" r="2.2"/>
  <circle class="st0" cx="1495" cy="336.2" r="2.2"/>
  <circle class="st0" cx="1386.4" cy="1059.7" r="2.2"/>
  <circle class="st0" cx="1433.5" cy="207.3" r="2.2"/>
  <circle class="st0" cx="1353.9" cy="151.6" r="2.2"/>
  <circle class="st0" cx="1256.2" cy="153.9" r="2.2"/>
  <circle class="st0" cx="829.2" cy="860.3" r="2.2"/>
  <circle class="st0" cx="989.5" cy="828.3" r="2.2"/>
  <circle class="st0" cx="1242.6" cy="339.5" r="3.3"/>
  <circle class="st0" cx="1542.6" cy="416.2" r="3.3"/>
  <circle class="st0" cx="1117.9" cy="45.8" r="2.2"/>
  <circle class="st0" cx="1152.1" cy="1088.5" r="5.6"/>
  <circle class="st0" cx="859.1" cy="827.5" r="3.3"/>
  <circle class="st0" cx="835.9" cy="735.3" r="2.2"/>
  <circle class="st0" cx="811" cy="319.5" r="2.2"/>
  <circle class="st0" cx="833.3" cy="568.9" r="2.2"/>
  <circle class="st0" cx="897.6" cy="629.4" r="2.5"/>
  <circle class="st0" cx="2332.3" cy="713.4" r="5.6"/>
  <circle class="st0" cx="1977.6" cy="112.7" r="5.6"/>
  <circle class="st0" cx="2305.3" cy="795.3" r="3.3"/>
  <circle class="st0" cx="2040" cy="821.8" r="2.2"/>
  <circle class="st0" cx="1812.2" cy="623.2" r="2.2"/>
  <circle class="st0" cx="1826.4" cy="957.8" r="2.2"/>
  <circle class="st0" cx="2272.4" cy="440" r="3.3"/>
  <circle class="st0" cx="2173.2" cy="366.6" r="2.2"/>
  <circle class="st0" cx="2057.2" cy="445" r="2.2"/>
  <circle class="st0" cx="2262.2" cy="125.8" r="2.2"/>
  <circle class="st0" cx="2213.8" cy="569.9" r="2.2"/>
  <circle class="st0" cx="1744.5" cy="756.7" r="2.2"/>
  <circle class="st0" cx="1782.3" cy="887.4" r="2.2"/>
  <circle class="st0" cx="2096.8" cy="1091.7" r="2.2"/>
  <circle class="st0" cx="1827.8" cy="351.3" r="2.2"/>
  <circle class="st0" cx="2216" cy="276.6" r="3.3"/>
  <circle class="st0" cx="1872.1" cy="213.7" r="3.3"/>
  <circle class="st0" cx="2144.5" cy="724.3" r="2.5"/>
  <circle class="st0" cx="1897" cy="625.5" r="3.3"/>
  <circle class="st0" cx="1660.7" cy="415.8" r="3.3"/>
  <circle class="st0" cx="1646.1" cy="216.5" r="2.2"/>
  <circle class="st0" cx="1739" cy="506.6" r="2.2"/>
  <circle class="st0" cx="3048.6" cy="1078.4" r="2.5"/>
  <circle class="st0" cx="2758.6" cy="432.6" r="5.6"/>
  <circle class="st0" cx="2638.3" cy="435.7" r="5.6"/>
  <circle class="st0" cx="2882.2" cy="619.2" r="3.3"/>
  <circle class="st0" cx="2838" cy="930.8" r="2.2"/>
  <circle class="st0" cx="2546.5" cy="725.8" r="2.2"/>
  <circle class="st0" cx="2852.7" cy="889" r="2.2"/>
  <circle class="st0" cx="2987.4" cy="536.6" r="2.2"/>
  <circle class="st0" cx="2943.5" cy="482.2" r="2.2"/>
  <circle class="st0" cx="2758.6" cy="501.5" r="2.2"/>
  <circle class="st0" cx="2906.8" cy="158.4" r="2.2"/>
  <circle class="st0" cx="2965.2" cy="580.5" r="2.2"/>
  <circle class="st0" cx="2809.7" cy="757.2" r="2.2"/>
  <circle class="st0" cx="2628.1" cy="997.5" r="2.2"/>
  <circle class="st0" cx="3146.9" cy="1037.3" r="2.2"/>
  <circle class="st0" cx="2596.4" cy="310.9" r="2.2"/>
  <circle class="st0" cx="2638.4" cy="56.6" r="5.6"/>
  <circle class="st0" cx="2482.3" cy="821.8" r="3.3"/>
  <circle class="st0" cx="3110.3" cy="675.6" r="2.5"/>
  <circle class="st0" cx="2480" cy="786.2" r="3.3"/>
  <circle class="st0" cx="2409.7" cy="515.8" r="3.3"/>
  <circle class="st0" cx="2436.9" cy="116.7" r="2.2"/>
  <circle class="st0" cx="2581.2" cy="562.8" r="2.2"/>
  <circle class="st0" cx="478.5" cy="2108.4" r="2.5"/>
  <circle class="st0" cx="776.2" cy="1306" r="5.6"/>
  <circle class="st0" cx="635.1" cy="1912.1" r="3.3"/>
  <circle class="st0" cx="462.8" cy="1342.4" r="3.3"/>
  <circle class="st0" cx="403.3" cy="1915.4" r="2.2"/>
  <circle class="st0" cx="523.6" cy="2057.6" r="2.2"/>
  <circle class="st0" cx="646.1" cy="1933.2" r="2.2"/>
  <circle class="st0" cx="659.5" cy="1509" r="2.2"/>
  <circle class="st0" cx="430.8" cy="1696.7" r="2.2"/>
  <circle class="st0" cx="396.6" cy="1582.6" r="2.2"/>
  <circle class="st0" cx="734.1" cy="1117.5" r="2.2"/>
  <circle class="st0" cx="476.2" cy="1173.9" r="2.2"/>
  <circle class="st0" cx="359.2" cy="1638.9" r="2.2"/>
  <circle class="st0" cx="70.6" cy="2011.7" r="2.2"/>
  <circle class="st0" cx="745.2" cy="1172.8" r="3.3"/>
  <circle class="st0" cx="312.9" cy="1419.2" r="3.3"/>
  <circle class="st0" cx="307.3" cy="1190.4" r="3.3"/>
  <circle class="st0" cx="197.2" cy="2134.9" r="3.3"/>
  <circle class="st0" cx="164.5" cy="1281.8" r="5.6"/>
  <circle class="st0" cx="68.4" cy="2010.7" r="2.2"/>
  <circle class="st0" cx="145.2" cy="1648" r="2.2"/>
  <circle class="st0" cx="122.5" cy="1093.3" r="2.2"/>
  <circle class="st0" cx="133.5" cy="1148.7" r="3.3"/>
  <circle class="st0" cx="1541.1" cy="2149.9" r="5.6"/>
  <circle class="st0" cx="1344.4" cy="1374.4" r="5.6"/>
  <circle class="st0" cx="1138.5" cy="1842.5" r="3.3"/>
  <circle class="st0" cx="1382.8" cy="1388.1" r="3.3"/>
  <circle class="st0" cx="1466.5" cy="2050" r="2.2"/>
  <circle class="st0" cx="1398.6" cy="1999.8" r="2.2"/>
  <circle class="st0" cx="1183.2" cy="2052.2" r="2.2"/>
  <circle class="st0" cx="1505.9" cy="1564.8" r="2.2"/>
  <circle class="st0" cx="1046.5" cy="1553.5" r="2.2"/>
  <circle class="st0" cx="1199.9" cy="1309.9" r="2.2"/>
  <circle class="st0" cx="1541.1" cy="1244.9" r="2.2"/>
  <circle class="st0" cx="1445.1" cy="1792.6" r="2.2"/>
  <circle class="st0" cx="1177.6" cy="1750.3" r="2.2"/>
  <circle class="st0" cx="1115.7" cy="1917.1" r="2.2"/>
  <circle class="st0" cx="1395.3" cy="1169.4" r="3.3"/>
  <circle class="st0" cx="1138.5" cy="1542" r="3.3"/>
  <circle class="st0" cx="1005.8" cy="1172.6" r="2.2"/>
  <circle class="st0" cx="1315.6" cy="2024.5" r="3.3"/>
  <circle class="st0" cx="942.2" cy="1145.2" r="5.6"/>
  <circle class="st0" cx="953.2" cy="2002.5" r="2.2"/>
  <circle class="st0" cx="918.6" cy="1573.4" r="2.2"/>
  <circle class="st0" cx="929.4" cy="1220.7" r="2.2"/>
  <circle class="st0" cx="956.5" cy="1483" r="3.3"/>
  <circle class="st0" cx="1991.7" cy="1729.1" r="5.6"/>
  <circle class="st0" cx="2351.5" cy="1140.3" r="5.6"/>
  <circle class="st0" cx="2294" cy="1913.7" r="3.3"/>
  <circle class="st0" cx="2097.9" cy="1120.3" r="3.3"/>
  <circle class="st0" cx="2362.5" cy="1997.7" r="2.2"/>
  <circle class="st0" cx="2202.3" cy="1804.4" r="2.2"/>
  <circle class="st0" cx="2270.7" cy="1821.5" r="2.2"/>
  <circle class="st0" cx="2264.1" cy="1437.5" r="2.2"/>
  <circle class="st0" cx="2209.5" cy="2121.7" r="2.2"/>
  <circle class="st0" cx="2256.7" cy="1269.3" r="2.2"/>
  <circle class="st0" cx="2177.1" cy="1213.6" r="2.2"/>
  <circle class="st0" cx="2079.4" cy="1215.8" r="2.2"/>
  <circle class="st0" cx="1652.4" cy="1922.3" r="2.2"/>
  <circle class="st0" cx="1812.7" cy="1890.3" r="2.2"/>
  <circle class="st0" cx="2065.7" cy="1401.5" r="3.3"/>
  <circle class="st0" cx="2365.8" cy="1478.2" r="3.3"/>
  <circle class="st0" cx="1941" cy="1107.7" r="2.2"/>
  <circle class="st0" cx="1975.2" cy="2150.4" r="5.6"/>
  <circle class="st0" cx="1682.3" cy="1889.5" r="3.3"/>
  <circle class="st0" cx="1659" cy="1797.3" r="2.2"/>
  <circle class="st0" cx="1634.1" cy="1381.4" r="2.2"/>
  <circle class="st0" cx="1656.5" cy="1630.9" r="2.2"/>
  <circle class="st0" cx="1720.8" cy="1691.4" r="2.5"/>
  <circle class="st0" cx="3127.3" cy="1783.5" r="5.6"/>
  <circle class="st0" cx="2772.6" cy="1182.8" r="5.6"/>
  <circle class="st0" cx="3100.2" cy="1865.4" r="3.3"/>
  <circle class="st0" cx="2835" cy="1891.9" r="2.2"/>
  <circle class="st0" cx="2607.2" cy="1693.3" r="2.2"/>
  <circle class="st0" cx="2621.4" cy="2027.9" r="2.2"/>
  <circle class="st0" cx="3067.4" cy="1510.1" r="3.3"/>
  <circle class="st0" cx="2968.1" cy="1436.7" r="2.2"/>
  <circle class="st0" cx="2995.9" cy="2044.7" r="2.2"/>
  <circle class="st0" cx="2894.8" cy="1410.2" r="2.2"/>
  <circle class="st0" cx="3054.6" cy="1670.2" r="2.2"/>
  <circle class="st0" cx="2868" cy="1264.9" r="2.2"/>
  <circle class="st0" cx="2610.5" cy="1992.7" r="2.2"/>
  <circle class="st0" cx="3163.3" cy="1876.8" r="2.2"/>
  <circle class="st0" cx="2640" cy="1358.4" r="3.3"/>
  <circle class="st0" cx="2984.8" cy="1425" r="3.3"/>
  <circle class="st0" cx="2657" cy="1162.4" r="3.3"/>
  <circle class="st0" cx="2634.4" cy="1749.7" r="5.6"/>
  <circle class="st0" cx="2428.1" cy="1706.5" r="3.3"/>
  <circle class="st0" cx="2502.6" cy="1854.8" r="2.2"/>
  <circle class="st0" cx="2492.9" cy="1389" r="2.2"/>
  <circle class="st0" cx="2417.5" cy="1754.4" r="2.2"/>
  <circle class="st0" cx="2899.6" cy="1626.3" r="2.5"/>
</svg>